# xmcd
#
# Track frame offsets:
# 150
# 21204
# 36255
# 52686
# 66687
# 82673
# 104009
# 120774
# 136423
# 150201
# 166881
# 181961
# 195770
# 209887
# 231450
# 247549
# 263286
# 276991
# 292584
# 308532
#
# Disc length: 4341 seconds
#
#
# Revision: 0
# Processed by: cddbd v1.5.2PL0 Copyright (c) Steve Scherf et al.
# Submitted via: FreeRIP 2.951 
#
DISCID=fa10f314
DTITLE=Hüttenzauber 2008 CD 2
DYEAR=2008
DGENRE=Hip-Hop
TTITLE0=Gisela
TTITLE1=Dicke Mädchen haben schöne Namen
TTITLE2=Der Erst Sahen Mix
TTITLE3=Hey! Amigo Charly Brown
TTITLE4=Keiner liebt dich...
TTITLE5=Hit-auf-Hit-Party-Mix 2
TTITLE6=Gloria
TTITLE7=Der gnadenlose Partymix
TTITLE8=Schokolädchen
TTITLE9=Megamix
TTITLE10=Das rote Pferd (DieWelt ist schön Milord)
TTITLE11=Döner-Hüttenzauber-HITMIX
TTITLE12=Zwei Spuren im Schnee
TTITLE13=Ü30-Party-Hitmix
TTITLE14=Genie auf die Ski
TTITLE15=Finger im Po Mexico
TTITLE16=Dicke Anna
TTITLE17=Hot Summer
TTITLE18=Du hast den schönsten Arsch der Welt
TTITLE19=The Questions Is What Is The Questions?
EXTD=
EXTT0=
EXTT1=
EXTT2=
EXTT3=
EXTT4=
EXTT5=
EXTT6=
EXTT7=
EXTT8=
EXTT9=
EXTT10=
EXTT11=
EXTT12=
EXTT13=
EXTT14=
EXTT15=
EXTT16=
EXTT17=
EXTT18=
EXTT19=
PLAYORDER=
